<?xml version="1.0" encoding="utf-8"?>
<!-- Generator: Adobe Illustrator 19.0.1, SVG Export Plug-In . SVG Version: 6.00 Build 0)  -->
<svg version="1.1" id="Layer_1" xmlns="http://www.w3.org/2000/svg" xmlns:xlink="http://www.w3.org/1999/xlink" x="0px" y="0px"
	 viewBox="0 0 1000 1000" style="enable-background:new 0 0 1000 1000;" xml:space="preserve">
<path d="M779.9,551c0,155-125.7,280.2-280.1,280.2s-280-125.6-280-280.1S345,271,500,271v103.6l292.4-187.5L500-0.3v102.6
	c-61,0-119.5,11.9-174.9,35.3c-53.5,22.6-101.5,55-142.7,96.2C141.3,275,108.9,323,86.3,376.4c-23.4,55.4-35.3,114.2-35.3,174.7
	s11.9,119.3,35.3,174.7c22.6,53.5,55,101.5,96.2,142.6c41.2,41.2,89.2,73.5,142.6,96.2c55.4,23.4,114.2,35.3,174.7,35.3
	s119.3-11.9,174.7-35.3c53.5-22.6,101.5-55,142.6-96.2c41.2-41.2,73.5-89.3,96.2-142.7c23.4-55.4,35.3-113.8,35.3-174.8H779.9z"/>
</svg>
